<svg width="428" height="400" viewBox="0 0 428 400" fill="none" xmlns="http://www.w3.org/2000/svg">
<circle cx="200" cy="200" r="200" fill="black"/>
<circle cx="210" cy="200" r="190" fill="white"/>
<path d="M122.96 244.48C121.595 244.224 120.229 244.053 118.864 243.968C117.584 243.883 116.261 243.584 114.896 243.072C114.384 242.901 113.744 242.432 112.976 241.664C112.293 240.896 111.824 240.299 111.568 239.872C111.056 239.104 110.672 238.336 110.416 237.568C110.245 236.8 110.203 235.989 110.288 235.136C110.373 234.88 110.416 234.539 110.416 234.112C110.416 232.832 110.8 231.509 111.568 230.144C112.336 228.779 113.019 227.499 113.616 226.304L114 225.92C114.853 224.213 116.005 222.293 117.456 220.16C118.907 218.027 120.187 216.192 121.296 214.656C122.064 213.547 122.875 212.48 123.728 211.456C124.667 210.432 125.477 209.365 126.16 208.256L128.208 204.928L129.104 203.776L129.36 203.392C129.36 203.307 129.36 203.264 129.36 203.264C129.445 203.179 129.488 203.136 129.488 203.136C130.768 201.088 132.005 198.997 133.2 196.864C134.48 194.731 135.248 192.427 135.504 189.952C135.589 189.696 135.675 189.44 135.76 189.184C135.845 188.928 135.931 188.672 136.016 188.416V187.904C136.016 187.392 135.973 186.837 135.888 186.24C135.803 185.643 135.803 185.216 135.888 184.96L135.504 183.296C134.907 182.869 134.608 182.528 134.608 182.272C134.693 181.931 134.224 181.504 133.2 180.992L132.688 180.48C132.603 180.736 132.389 180.864 132.048 180.864C131.365 180.864 130.939 180.565 130.768 179.968L129.872 180.096C129.787 179.84 129.275 179.627 128.336 179.456C127.483 179.285 126.971 179.243 126.8 179.328L126.416 178.944C126.16 178.944 125.819 178.944 125.392 178.944C125.051 178.859 124.752 178.859 124.496 178.944C124.24 179.115 124.027 179.157 123.856 179.072C123.685 178.987 123.429 178.944 123.088 178.944C122.832 178.944 122.576 178.987 122.32 179.072C122.064 179.157 121.765 179.243 121.424 179.328L120.656 179.712C119.888 179.883 118.949 180.011 117.84 180.096C116.816 180.096 115.963 180.309 115.28 180.736L115.152 180.48L112.08 181.376L111.184 181.504C110.587 182.016 110.288 182.357 110.288 182.528C110.288 182.869 110.587 183.083 111.184 183.168C111.781 183.168 111.824 183.339 111.312 183.68C110.629 184.021 109.904 184.277 109.136 184.448C108.368 184.619 107.643 184.917 106.96 185.344C106.619 185.6 106.277 185.856 105.936 186.112C105.68 186.283 105.296 186.325 104.784 186.24L104.4 186.496L102.736 187.776C101.968 187.691 101.072 187.947 100.048 188.544C99.024 189.141 98.1707 189.653 97.488 190.08L97.36 189.824C97.1893 189.909 96.976 190.08 96.72 190.336C96.5493 190.592 96.3787 190.805 96.208 190.976L91.856 193.536L91.472 193.408L90.96 194.432L90.704 194.304C89.8507 194.987 89.0827 195.584 88.4 196.096C87.8027 196.608 87.2053 197.376 86.608 198.4L86.736 199.936C87.0773 200.107 87.376 200.235 87.632 200.32C87.9733 200.405 88.3147 200.491 88.656 200.576L88.912 200.32C90.8747 200.491 92.7093 200.363 94.416 199.936L94.544 200.064L95.44 199.552L95.568 199.808L98.896 198.784L99.024 198.912C99.4507 198.571 99.792 198.4 100.048 198.4C100.389 198.4 100.091 198.784 99.152 199.552C98.2133 200.32 97.1893 200.619 96.08 200.448L95.696 201.088H94.672C94.7573 200.832 94.6293 200.832 94.288 201.088C94.032 201.344 93.904 201.472 93.904 201.472C92.7947 201.813 91.856 202.069 91.088 202.24C90.32 202.411 89.5093 202.496 88.656 202.496C88.3147 202.496 87.888 202.453 87.376 202.368C86.9493 202.283 86.48 202.24 85.968 202.24H85.84C85.6693 202.24 85.456 202.283 85.2 202.368C85.0293 202.453 84.816 202.453 84.56 202.368C83.1093 201.6 82.384 200.576 82.384 199.296C82.384 197.845 82.9387 196.352 84.048 194.816C85.1573 193.28 86.352 192 87.632 190.976C88.912 189.952 89.808 189.483 90.32 189.568L90.448 189.056L91.6 188.544L92.112 187.904L92.24 188.16L94.672 186.112L94.8 186.24L97.36 184.832L97.488 185.088C97.6587 184.917 97.8293 184.747 98 184.576C98.256 184.405 98.3413 184.533 98.256 184.96L99.152 184.064L99.28 184.192C100.219 183.253 100.901 182.784 101.328 182.784C101.84 182.784 102.651 182.571 103.76 182.144C104.613 181.803 105.467 181.419 106.32 180.992C107.259 180.48 108.155 180.181 109.008 180.096C109.52 179.925 109.947 179.797 110.288 179.712C110.629 179.627 111.013 179.499 111.44 179.328L111.568 179.584C111.824 179.413 112.293 179.2 112.976 178.944C113.744 178.688 114.469 178.475 115.152 178.304C115.92 178.048 116.389 178.005 116.56 178.176C116.731 178.432 116.901 178.56 117.072 178.56C117.413 178.56 117.712 178.432 117.968 178.176C118.309 177.92 118.608 177.749 118.864 177.664C119.291 177.579 119.675 177.536 120.016 177.536C120.443 177.451 120.827 177.451 121.168 177.536C121.253 177.536 121.424 177.493 121.68 177.408C121.851 177.323 122.149 177.28 122.576 177.28C123.173 177.28 123.856 177.365 124.624 177.536C125.392 177.707 125.947 177.792 126.288 177.792H126.544C126.8 177.792 127.099 177.749 127.44 177.664C127.867 177.493 128.123 177.451 128.208 177.536C128.72 177.792 129.275 178.005 129.872 178.176C130.469 178.261 131.024 178.432 131.536 178.688C131.963 179.029 132.432 179.157 132.944 179.072C133.541 178.987 133.883 178.987 133.968 179.072C135.419 180.096 136.656 180.864 137.68 181.376C138.789 181.888 139.685 183.083 140.368 184.96C140.88 186.24 141.136 187.52 141.136 188.8C141.136 189.397 141.051 189.995 140.88 190.592C140.795 191.189 140.667 191.829 140.496 192.512C140.24 193.195 139.984 193.877 139.728 194.56C139.557 195.157 139.387 195.797 139.216 196.48C139.131 196.821 138.704 197.675 137.936 199.04C137.253 200.405 136.528 201.771 135.76 203.136C134.992 204.416 134.437 205.227 134.096 205.568C133.499 206.251 132.859 207.019 132.176 207.872C131.579 208.725 131.024 209.579 130.512 210.432C129.744 211.541 128.976 212.608 128.208 213.632C127.44 214.571 126.629 215.595 125.776 216.704C124.837 217.899 123.941 219.179 123.088 220.544C122.235 221.909 121.381 223.275 120.528 224.64C120.357 224.981 120.187 225.365 120.016 225.792C119.931 226.133 119.717 226.475 119.376 226.816H119.248C119.077 226.816 118.864 226.987 118.608 227.328C118.437 227.584 118.309 227.797 118.224 227.968C118.309 228.309 118.139 228.949 117.712 229.888C117.371 230.827 116.987 231.808 116.56 232.832C116.133 233.771 115.835 234.411 115.664 234.752C115.408 235.264 115.28 235.605 115.28 235.776C115.365 235.947 115.365 236.245 115.28 236.672C115.195 238.464 115.835 239.744 117.2 240.512C118.651 241.365 120.101 242.005 121.552 242.432C121.893 242.517 122.192 242.56 122.448 242.56C122.789 242.645 123.131 242.688 123.472 242.688C124.837 242.688 126.203 242.475 127.568 242.048C128.933 241.621 130.085 241.195 131.024 240.768C132.048 240.427 132.645 240.299 132.816 240.384L133.2 239.872C133.627 239.872 133.968 239.787 134.224 239.616C134.565 239.445 134.907 239.317 135.248 239.232C135.419 239.061 135.632 238.976 135.888 238.976C136.059 238.976 136.144 238.976 136.144 238.976L137.04 238.464L136.912 238.336C136.912 238.165 137.125 238.037 137.552 237.952C137.979 237.781 138.235 237.696 138.32 237.696V237.44L139.6 236.672C139.685 236.587 139.771 236.587 139.856 236.672C139.941 236.672 140.027 236.629 140.112 236.544C140.539 236.373 140.88 236.075 141.136 235.648C141.392 235.221 141.733 234.965 142.16 234.88C143.099 234.453 144.208 233.685 145.488 232.576C146.853 231.381 148.133 230.144 149.328 228.864C150.608 227.584 151.589 226.56 152.272 225.792C152.528 225.536 152.741 225.237 152.912 224.896C153.168 224.555 153.424 224.299 153.68 224.128L161.488 216.064C161.744 215.808 162 215.552 162.256 215.296C162.512 214.955 162.683 214.613 162.768 214.272C162.768 214.272 163.067 213.973 163.664 213.376C164.261 212.693 164.901 212.011 165.584 211.328C166.267 210.56 166.693 210.048 166.864 209.792C167.035 209.451 167.291 208.939 167.632 208.256C167.973 207.488 168.144 206.933 168.144 206.592C168.144 206.421 168.016 206.251 167.76 206.08C167.504 205.824 167.376 205.525 167.376 205.184C167.376 204.587 167.291 204.032 167.12 203.52C166.949 202.923 166.864 202.411 166.864 201.984C166.949 201.301 167.163 200.533 167.504 199.68C167.845 198.827 168.315 198.229 168.912 197.888C169.253 197.717 169.509 197.632 169.68 197.632L170.064 197.76C170.235 197.589 170.277 197.419 170.192 197.248C170.192 197.077 170.235 196.907 170.32 196.736V196.48L170.192 195.968C170.107 195.627 170.064 194.987 170.064 194.048C170.064 193.024 170.064 192.085 170.064 191.232C170.064 190.293 170.021 189.781 169.936 189.696V189.056C170.107 189.141 170.277 189.099 170.448 188.928C170.704 188.757 170.875 188.672 170.96 188.672C171.216 188.672 171.344 188.843 171.344 189.184C171.515 189.525 171.557 189.867 171.472 190.208C171.387 190.549 171.344 190.891 171.344 191.232C171.344 191.573 171.472 191.915 171.728 192.256C171.984 192.512 172.155 192.811 172.24 193.152C172.325 193.323 172.325 193.579 172.24 193.92C172.24 194.176 172.283 194.389 172.368 194.56C172.453 194.731 172.581 194.901 172.752 195.072C172.923 195.243 173.051 195.413 173.136 195.584V195.712C173.136 195.883 173.051 196.181 172.88 196.608C172.709 197.035 172.667 197.419 172.752 197.76C173.008 200.149 173.648 202.581 174.672 205.056C174.843 205.312 175.013 205.525 175.184 205.696C175.44 205.867 175.611 206.08 175.696 206.336V206.72C175.611 206.891 175.525 207.019 175.44 207.104C175.44 207.189 175.44 207.317 175.44 207.488C175.44 208.341 175.568 209.067 175.824 209.664C176.165 210.176 176.507 210.731 176.848 211.328V211.584C176.848 212.523 176.976 213.376 177.232 214.144C177.573 214.912 178 215.68 178.512 216.448C178.597 216.533 178.597 216.747 178.512 217.088C178.512 217.344 178.555 217.557 178.64 217.728C178.811 218.069 179.024 218.368 179.28 218.624C179.536 218.88 179.707 219.136 179.792 219.392C180.048 219.819 180.176 220.288 180.176 220.8C180.261 221.312 180.389 221.781 180.56 222.208C180.731 222.549 180.987 222.848 181.328 223.104C181.669 223.275 181.925 223.531 182.096 223.872C182.608 224.725 183.12 225.749 183.632 226.944C184.229 228.053 184.827 228.949 185.424 229.632V229.76C185.424 230.101 185.595 230.443 185.936 230.784C186.277 231.04 186.576 231.339 186.832 231.68C186.917 231.851 186.96 232.107 186.96 232.448C187.045 232.789 187.173 232.96 187.344 232.96C187.515 232.96 187.557 232.96 187.472 232.96C187.472 232.875 187.557 232.832 187.728 232.832L189.136 233.984C189.307 234.069 189.392 234.197 189.392 234.368C189.392 234.453 189.435 234.539 189.52 234.624C189.691 234.709 189.904 234.752 190.16 234.752C190.416 234.752 190.587 234.923 190.672 235.264C190.757 235.435 191.013 235.776 191.44 236.288C191.867 236.8 192.123 237.099 192.208 237.184C192.293 237.269 192.379 237.312 192.464 237.312C192.549 237.227 192.635 237.227 192.72 237.312C193.317 237.568 193.829 237.995 194.256 238.592C194.683 239.189 195.195 239.488 195.792 239.488H195.92C196.261 239.488 196.56 239.403 196.816 239.232C197.072 239.061 197.328 238.976 197.584 238.976C197.755 239.061 197.797 239.147 197.712 239.232C197.712 239.232 197.797 239.232 197.968 239.232C198.139 239.232 198.181 239.189 198.096 239.104C198.011 238.933 198.053 238.891 198.224 238.976C198.395 238.976 198.523 239.061 198.608 239.232C198.779 239.317 198.949 239.403 199.12 239.488C199.547 239.488 199.845 239.36 200.016 239.104C200.272 238.763 200.485 238.464 200.656 238.208C200.827 238.037 200.997 237.995 201.168 238.08C201.424 238.08 201.637 238.037 201.808 237.952C202.064 237.696 202.277 237.44 202.448 237.184C202.704 236.928 203.003 236.757 203.344 236.672C203.6 236.501 203.813 236.288 203.984 236.032C204.24 235.605 204.411 235.136 204.496 234.624C204.581 234.112 204.667 233.685 204.752 233.344C205.179 233.344 205.435 233.216 205.52 232.96C205.947 232.021 206.288 230.997 206.544 229.888L206.672 229.376C206.672 229.205 206.629 229.077 206.544 228.992C206.544 228.907 206.544 228.821 206.544 228.736V228.352C206.544 227.925 206.587 227.499 206.672 227.072C206.757 226.56 206.843 226.133 206.928 225.792C207.099 225.963 207.184 225.877 207.184 225.536L207.696 219.904C207.696 219.733 207.653 219.648 207.568 219.648C207.483 219.563 207.44 219.477 207.44 219.392C207.355 218.197 207.184 217.259 206.928 216.576C206.672 215.808 206.459 214.869 206.288 213.76C206.203 213.504 206.203 213.248 206.288 212.992C206.373 212.736 206.373 212.523 206.288 212.352C206.203 211.499 206.032 210.987 205.776 210.816C205.605 210.645 205.435 210.432 205.264 210.176C205.179 209.92 205.136 209.365 205.136 208.512C205.136 208.341 205.051 208.128 204.88 207.872C204.709 207.616 204.581 207.445 204.496 207.36L204.112 207.744C203.771 207.061 203.515 206.379 203.344 205.696C203.173 205.013 202.875 204.373 202.448 203.776C202.363 203.691 202.32 203.435 202.32 203.008C202.405 202.581 202.448 202.325 202.448 202.24C202.277 202.069 202.064 201.984 201.808 201.984C201.637 201.899 201.467 201.771 201.296 201.6C201.211 201.173 201.04 200.917 200.784 200.832C200.613 200.747 200.4 200.533 200.144 200.192C200.059 200.107 200.016 199.979 200.016 199.808C200.101 199.552 200.059 199.296 199.888 199.04C199.803 198.955 199.632 198.912 199.376 198.912C199.205 198.912 199.077 198.827 198.992 198.656C198.907 198.4 198.651 198.059 198.224 197.632C197.883 197.205 197.499 196.992 197.072 196.992C196.901 197.077 196.773 197.205 196.688 197.376C196.603 197.547 196.517 197.632 196.432 197.632C196.091 197.547 195.792 197.419 195.536 197.248C195.365 196.992 195.109 196.864 194.768 196.864C194.597 196.864 194.427 196.907 194.256 196.992C194.171 197.077 194.043 197.12 193.872 197.12C193.787 197.12 193.744 196.992 193.744 196.736C193.829 196.48 193.787 196.352 193.616 196.352H193.488C193.317 196.352 193.104 196.395 192.848 196.48C192.592 196.565 192.379 196.565 192.208 196.48C192.379 196.309 192.293 196.224 191.952 196.224C191.781 196.139 191.739 196.139 191.824 196.224C191.909 196.309 191.867 196.352 191.696 196.352C191.525 196.267 191.312 196.053 191.056 195.712C190.885 195.371 190.672 195.2 190.416 195.2C190.245 195.115 190.203 195.115 190.288 195.2C190.373 195.285 190.331 195.328 190.16 195.328C189.904 195.243 189.648 195.072 189.392 194.816C189.136 194.56 188.923 194.432 188.752 194.432C188.581 194.432 188.496 194.475 188.496 194.56C188.581 194.56 188.539 194.603 188.368 194.688L188.112 194.432C187.771 194.091 187.259 193.579 186.576 192.896C185.893 192.213 185.552 191.616 185.552 191.104C185.637 190.592 185.851 190.037 186.192 189.44C186.533 188.843 187.003 188.587 187.6 188.672C187.771 188.757 187.941 188.885 188.112 189.056C188.283 189.141 188.453 189.227 188.624 189.312H189.008C189.179 189.483 189.349 189.739 189.52 190.08C189.776 190.421 189.989 190.635 190.16 190.72C190.16 190.805 190.203 190.763 190.288 190.592C190.459 190.421 190.587 190.336 190.672 190.336C190.843 190.336 190.928 190.379 190.928 190.464C190.928 190.464 190.971 190.507 191.056 190.592C191.312 190.592 191.568 190.464 191.824 190.208C192.08 189.867 192.293 189.653 192.464 189.568C192.635 189.568 192.677 189.653 192.592 189.824C192.592 189.909 192.635 189.995 192.72 190.08L193.872 189.824L194.128 190.208C194.384 190.293 194.64 190.464 194.896 190.72C195.152 190.891 195.365 190.976 195.536 190.976C195.707 191.061 195.792 191.104 195.792 191.104C195.877 191.019 195.963 190.976 196.048 190.976C196.219 190.976 196.645 191.147 197.328 191.488C198.011 191.829 198.395 192.043 198.48 192.128C198.651 192.213 198.736 192.299 198.736 192.384C198.736 192.469 198.779 192.555 198.864 192.64L199.12 192.384L199.376 192.768L199.76 192.512L200.912 194.688C201.083 194.688 201.253 194.688 201.424 194.688C201.68 194.603 201.851 194.603 201.936 194.688C202.021 194.688 202.064 194.773 202.064 194.944C202.149 195.115 202.235 195.243 202.32 195.328C202.491 195.413 202.917 195.584 203.6 195.84C204.283 196.096 204.667 196.224 204.752 196.224C204.923 196.224 204.965 196.181 204.88 196.096C204.88 196.011 204.965 195.968 205.136 195.968C205.307 195.968 205.435 196.053 205.52 196.224C205.605 196.395 205.733 196.48 205.904 196.48C206.075 196.48 206.117 196.48 206.032 196.48C205.947 196.395 205.989 196.352 206.16 196.352C206.331 196.352 206.416 196.395 206.416 196.48C206.416 196.565 206.459 196.693 206.544 196.864C206.544 196.693 206.715 196.565 207.056 196.48C207.483 196.395 207.739 196.395 207.824 196.48C207.995 196.565 208.336 196.821 208.848 197.248C209.445 197.589 209.659 197.845 209.488 198.016C209.403 198.101 209.104 198.272 208.592 198.528C208.08 198.699 207.739 198.784 207.568 198.784C207.312 198.784 207.056 198.741 206.8 198.656C206.544 198.571 206.288 198.528 206.032 198.528C205.861 198.528 205.776 198.571 205.776 198.656C205.861 198.741 205.819 198.784 205.648 198.784C205.477 198.784 205.307 198.741 205.136 198.656C204.965 198.485 204.752 198.4 204.496 198.4C204.069 198.4 203.771 198.699 203.6 199.296C203.6 199.381 203.771 199.808 204.112 200.576C204.539 201.344 204.965 202.155 205.392 203.008C205.819 203.776 206.075 204.288 206.16 204.544C206.331 205.141 206.501 205.739 206.672 206.336C206.928 206.933 207.099 207.573 207.184 208.256C207.184 208.427 207.184 208.683 207.184 209.024C207.184 209.365 207.227 209.579 207.312 209.664C207.397 209.749 207.483 209.792 207.568 209.792C207.653 209.707 207.739 209.749 207.824 209.92C207.824 210.005 207.824 210.091 207.824 210.176C207.909 210.261 207.952 210.347 207.952 210.432V211.072C207.952 211.157 207.952 211.328 207.952 211.584C208.037 211.84 208.208 212.181 208.464 212.608V213.12C208.464 213.973 208.549 214.869 208.72 215.808C208.891 216.661 209.019 217.557 209.104 218.496C209.189 219.349 209.189 220.203 209.104 221.056C209.104 221.824 209.104 222.635 209.104 223.488C209.104 223.744 209.147 224.043 209.232 224.384C209.317 224.64 209.36 224.853 209.36 225.024C209.36 225.28 209.317 225.493 209.232 225.664C209.147 225.835 209.104 226.005 209.104 226.176C209.019 226.517 208.976 226.901 208.976 227.328C208.976 227.669 208.976 228.011 208.976 228.352C208.891 228.779 208.72 229.547 208.464 230.656C208.208 231.68 207.995 232.405 207.824 232.832C207.739 232.917 207.611 232.96 207.44 232.96C207.355 232.96 207.312 233.045 207.312 233.216C207.056 233.813 206.843 234.453 206.672 235.136C206.501 235.733 206.203 236.331 205.776 236.928C205.264 237.781 204.624 238.464 203.856 238.976C203.173 239.403 202.533 239.957 201.936 240.64C201.253 240.64 200.656 240.896 200.144 241.408C199.632 242.005 199.035 242.304 198.352 242.304C198.011 242.304 197.797 242.261 197.712 242.176C197.627 242.091 197.413 242.176 197.072 242.432L196.816 242.048C196.389 242.475 196.048 242.688 195.792 242.688C195.536 242.688 195.28 242.645 195.024 242.56C194.853 242.475 194.597 242.389 194.256 242.304L193.744 241.792L193.232 242.048C192.635 241.621 191.995 241.152 191.312 240.64C190.629 240.213 189.947 239.829 189.264 239.488L188.24 239.232C188.069 239.061 187.856 238.805 187.6 238.464C187.344 238.123 187.131 237.952 186.96 237.952C186.875 237.867 186.789 237.867 186.704 237.952C186.704 238.037 186.619 238.037 186.448 237.952C186.363 237.952 186.149 237.867 185.808 237.696C185.467 237.44 185.211 237.269 185.04 237.184C185.04 237.013 184.997 236.885 184.912 236.8C184.827 236.629 184.613 236.459 184.272 236.288C184.016 236.032 183.803 235.861 183.632 235.776C183.291 235.435 182.949 235.051 182.608 234.624C182.267 234.112 181.883 233.728 181.456 233.472C181.456 233.131 181.413 232.917 181.328 232.832C180.219 231.552 179.408 230.699 178.896 230.272C178.469 229.76 177.787 228.693 176.848 227.072C176.677 226.731 176.464 226.389 176.208 226.048C176.037 225.707 175.824 225.408 175.568 225.152C175.312 224.811 175.099 224.469 174.928 224.128C174.587 223.445 174.331 222.763 174.16 222.08C173.989 221.312 173.733 220.587 173.392 219.904C173.136 219.392 172.837 218.923 172.496 218.496C172.155 217.984 171.899 217.472 171.728 216.96C171.643 216.619 171.557 216.32 171.472 216.064C171.387 215.808 171.259 215.509 171.088 215.168L170.064 213.504C169.893 213.077 169.723 212.608 169.552 212.096C169.381 211.499 169.211 210.944 169.04 210.432L165.84 213.76C165.072 214.528 164.219 215.339 163.28 216.192C162.341 216.96 161.616 217.813 161.104 218.752C160.763 219.264 160.379 219.776 159.952 220.288C159.525 220.8 159.099 221.269 158.672 221.696C157.051 223.573 154.96 225.749 152.4 228.224C149.925 230.699 147.323 233.045 144.592 235.264C141.947 237.397 139.515 239.104 137.296 240.384C136.955 240.555 136.571 240.683 136.144 240.768C135.803 240.939 135.419 241.152 134.992 241.408C134.821 241.579 134.651 241.621 134.48 241.536L133.328 242.048C133.328 241.877 133.072 241.92 132.56 242.176C132.133 242.432 131.835 242.603 131.664 242.688L130.896 242.944L130.768 242.816L129.36 243.456L129.232 243.328C129.061 243.328 128.848 243.285 128.592 243.2C128.421 243.2 128.251 243.285 128.08 243.456V243.584C127.653 243.925 127.141 244.096 126.544 244.096C125.947 244.096 125.435 244.181 125.008 244.352L126.16 243.072L122.96 244.48ZM221.064 241.152C219.187 241.152 217.523 240.64 216.072 239.616C214.707 238.507 214.024 236.629 214.024 233.984C214.024 233.045 214.195 231.723 214.536 230.016C214.877 228.309 215.432 226.517 216.2 224.64C216.627 223.616 217.096 222.635 217.608 221.696C218.205 220.757 218.76 219.861 219.272 219.008C219.357 218.923 219.613 219.008 220.04 219.264C220.552 219.52 220.851 219.605 220.936 219.52C221.021 219.349 220.893 219.179 220.552 219.008C220.296 218.752 220.211 218.581 220.296 218.496C220.467 218.325 220.595 218.24 220.68 218.24C220.851 218.155 220.979 218.027 221.064 217.856C221.149 217.685 221.192 217.515 221.192 217.344C221.192 217.088 221.064 216.875 220.808 216.704C220.637 216.533 220.723 216.277 221.064 215.936C221.491 215.339 221.96 214.784 222.472 214.272C223.069 213.675 223.581 213.163 224.008 212.736C224.179 212.565 224.392 212.309 224.648 211.968C224.904 211.541 225.075 211.285 225.16 211.2L225.416 210.944C225.501 210.859 225.587 210.773 225.672 210.688C225.672 210.603 225.672 210.56 225.672 210.56C225.757 210.56 225.8 210.517 225.8 210.432C225.8 210.176 225.544 209.92 225.032 209.664C224.52 209.408 224.264 209.237 224.264 209.152C224.264 209.067 224.221 208.981 224.136 208.896C224.051 208.811 223.965 208.683 223.88 208.512C223.965 208.512 224.051 208.427 224.136 208.256C224.307 208 224.435 207.872 224.52 207.872C224.605 207.872 224.776 207.957 225.032 208.128C225.288 208.213 225.459 208.256 225.544 208.256C225.629 208.256 225.672 208.213 225.672 208.128C225.757 208.043 225.843 208 225.928 208C226.099 208 226.483 208.128 227.08 208.384C227.677 208.555 228.019 208.64 228.104 208.64C228.189 208.64 228.445 208.427 228.872 208C229.299 207.573 229.555 207.317 229.64 207.232C229.811 207.061 229.939 206.891 230.024 206.72C230.109 206.464 230.323 206.165 230.664 205.824H230.792C230.877 205.739 230.92 205.653 230.92 205.568C230.92 205.483 230.92 205.44 230.92 205.44C231.091 205.269 231.219 205.141 231.304 205.056C231.475 204.885 231.603 204.757 231.688 204.672C231.773 204.587 231.816 204.544 231.816 204.544C231.901 204.544 231.944 204.544 231.944 204.544C232.029 204.373 232.115 204.245 232.2 204.16C232.371 204.075 232.499 203.989 232.584 203.904L232.84 203.392C233.011 203.221 233.608 202.837 234.632 202.24C235.656 201.643 236.424 201.344 236.936 201.344H237.576C237.576 201.344 237.576 201.387 237.576 201.472C237.576 201.472 237.619 201.472 237.704 201.472C237.789 201.472 237.875 201.472 237.96 201.472C238.045 201.387 238.131 201.344 238.216 201.344C238.216 201.344 238.344 201.472 238.6 201.728C238.685 201.813 238.771 201.856 238.856 201.856C238.941 201.771 239.027 201.728 239.112 201.728C239.197 201.813 239.24 201.899 239.24 201.984C239.24 202.069 239.283 202.112 239.368 202.112C239.539 202.112 239.581 202.112 239.496 202.112C239.496 202.027 239.539 201.984 239.624 201.984C239.709 201.984 239.752 202.069 239.752 202.24C239.752 202.411 239.795 202.581 239.88 202.752C239.795 203.008 239.709 203.307 239.624 203.648C239.624 203.904 239.581 204.117 239.496 204.288C238.728 205.312 238.131 205.824 237.704 205.824C237.704 205.909 237.576 206.08 237.32 206.336C237.064 206.336 236.765 206.421 236.424 206.592C236.083 206.763 235.741 206.933 235.4 207.104V207.488C235.4 207.829 235.272 208 235.016 208C234.845 207.915 234.675 208.043 234.504 208.384V208.512C234.675 208.768 234.973 208.896 235.4 208.896L236.296 209.024C236.467 209.024 236.552 208.981 236.552 208.896C236.637 208.811 236.723 208.768 236.808 208.768C236.893 208.768 236.936 208.811 236.936 208.896C236.936 208.896 236.979 208.896 237.064 208.896C237.235 208.896 237.363 208.853 237.448 208.768C237.533 208.683 237.619 208.64 237.704 208.64L238.856 208.768C238.6 208.341 238.472 208 238.472 207.744C238.472 207.317 238.856 207.061 239.624 206.976C240.819 206.976 241.843 207.403 242.696 208.256C242.867 208.171 243.08 208.171 243.336 208.256C243.592 208.341 243.848 208.341 244.104 208.256L244.744 207.872L244.872 208C245.213 207.829 245.427 207.744 245.512 207.744C245.683 207.744 245.725 207.787 245.64 207.872C245.64 207.872 245.683 207.872 245.768 207.872C245.768 207.872 245.853 207.787 246.024 207.616C246.109 207.616 246.195 207.659 246.28 207.744C246.451 207.744 246.579 207.701 246.664 207.616L247.048 207.232H248.584L248.712 207.104C248.883 207.019 249.096 206.933 249.352 206.848C249.693 206.677 249.992 206.592 250.248 206.592C250.248 206.507 250.333 206.464 250.504 206.464C250.675 206.379 250.803 206.336 250.888 206.336H251.144C251.571 206.336 251.784 206.464 251.784 206.72C251.784 206.976 251.656 207.189 251.4 207.36C251.315 207.445 251.187 207.488 251.016 207.488C250.845 207.403 250.675 207.403 250.504 207.488C250.163 207.829 249.907 208 249.736 208C249.651 208 249.608 208 249.608 208C249.608 207.915 249.565 207.872 249.48 207.872C249.395 207.872 249.224 208 248.968 208.256L248.072 208.384H247.944C247.773 208.384 247.688 208.469 247.688 208.64C247.347 208.64 247.005 208.683 246.664 208.768C246.323 208.768 245.981 208.811 245.64 208.896L245.512 209.024C245.427 209.024 245.341 209.067 245.256 209.152C245.171 209.152 245.043 209.152 244.872 209.152C244.701 209.237 244.232 209.28 243.464 209.28C243.976 209.963 244.317 210.603 244.488 211.2C244.659 211.627 244.787 212.309 244.872 213.248C245.043 214.101 245.085 214.741 245 215.168C245 215.424 244.915 215.509 244.744 215.424C244.573 215.253 244.488 215.253 244.488 215.424C244.488 215.68 244.573 215.851 244.744 215.936C245 215.936 245.128 216.149 245.128 216.576C245.128 216.832 245.085 217.173 245 217.6C244.915 217.941 244.829 218.325 244.744 218.752C244.659 219.264 244.531 219.819 244.36 220.416C244.275 220.928 244.061 221.44 243.72 221.952L243.336 222.592V223.36C243.336 224.043 243.123 224.512 242.696 224.768C242.355 225.024 242.099 225.323 241.928 225.664C241.757 226.176 241.629 226.517 241.544 226.688C241.544 226.859 241.373 227.2 241.032 227.712C239.923 229.419 238.6 231.04 237.064 232.576C235.528 234.112 234.035 235.52 232.584 236.8C231.304 237.909 229.555 238.933 227.336 239.872C225.203 240.725 223.112 241.152 221.064 241.152ZM222.344 238.848C222.6 238.848 223.112 238.805 223.88 238.72C224.648 238.549 225.459 238.165 226.312 237.568C226.483 237.483 226.653 237.525 226.824 237.696C226.995 237.867 227.165 237.909 227.336 237.824C227.763 237.653 227.933 237.525 227.848 237.44C227.763 237.355 227.891 237.269 228.232 237.184H228.36C228.872 237.184 229.085 237.141 229 237.056C229 236.885 229.043 236.672 229.128 236.416C229.128 236.16 229.256 235.947 229.512 235.776C229.768 235.605 229.981 235.477 230.152 235.392C231.091 234.624 232.243 233.344 233.608 231.552C234.973 229.675 236.339 227.797 237.704 225.92C237.789 225.749 237.917 225.707 238.088 225.792C238.259 225.877 238.387 225.877 238.472 225.792C238.557 225.707 238.6 225.451 238.6 225.024C238.6 224.768 238.728 224.384 238.984 223.872C239.24 223.275 239.496 222.805 239.752 222.464C239.837 222.208 240.008 221.739 240.264 221.056C240.52 220.288 240.733 219.605 240.904 219.008C241.16 218.325 241.203 217.984 241.032 217.984C240.861 217.899 240.776 217.813 240.776 217.728C240.776 217.557 241.032 217.387 241.544 217.216C242.056 217.045 242.013 216.917 241.416 216.832C241.245 216.747 241.288 216.576 241.544 216.32C241.8 216.064 241.672 215.893 241.16 215.808C240.733 215.723 240.563 215.595 240.648 215.424C240.819 215.253 240.947 215.125 241.032 215.04C241.288 214.784 241.416 214.528 241.416 214.272C241.416 213.504 241.203 212.736 240.776 211.968C240.435 211.2 240.051 210.517 239.624 209.92C239.112 210.261 238.856 210.432 238.856 210.432C238.771 210.432 238.728 210.432 238.728 210.432C238.728 210.347 238.643 210.304 238.472 210.304C238.387 210.304 238.344 210.304 238.344 210.304C238.344 210.219 238.301 210.176 238.216 210.176C238.131 210.176 238.045 210.219 237.96 210.304C237.875 210.389 237.832 210.432 237.832 210.432C237.747 210.517 237.576 210.56 237.32 210.56C237.149 210.56 237.021 210.56 236.936 210.56C236.851 210.56 236.765 210.517 236.68 210.432C236.68 210.347 236.637 210.304 236.552 210.304C236.467 210.304 236.339 210.389 236.168 210.56C236.083 210.731 235.955 210.816 235.784 210.816C235.699 210.816 235.656 210.773 235.656 210.688C235.656 210.603 235.571 210.56 235.4 210.56C235.315 210.56 235.229 210.603 235.144 210.688C235.144 210.773 235.101 210.816 235.016 210.816C234.931 210.816 234.76 210.688 234.504 210.432H234.376C234.376 210.944 234.248 211.2 233.992 211.2C233.907 211.2 233.779 211.115 233.608 210.944C232.669 211.541 231.091 212.949 228.872 215.168C226.653 217.301 224.691 219.776 222.984 222.592C222.643 223.275 222.216 224.085 221.704 225.024C221.277 225.963 220.893 227.029 220.552 228.224C220.467 228.736 220.211 229.12 219.784 229.376C219.443 229.632 219.187 229.931 219.016 230.272C218.931 230.613 218.973 230.827 219.144 230.912C219.315 230.997 219.443 231.125 219.528 231.296C219.528 231.637 219.443 232.107 219.272 232.704C219.187 233.301 219.144 233.856 219.144 234.368C219.144 235.989 219.443 237.141 220.04 237.824C220.723 238.507 221.491 238.848 222.344 238.848ZM254.004 239.744C253.151 239.744 252.255 239.573 251.316 239.232C250.377 238.805 250.036 238.336 250.292 237.824C250.633 237.141 251.017 236.459 251.444 235.776C251.956 235.008 252.425 234.197 252.852 233.344L254.26 230.656C254.431 230.229 254.601 229.931 254.772 229.76C255.028 229.504 255.241 229.205 255.412 228.864C255.497 228.779 255.54 228.565 255.54 228.224C255.54 227.797 255.711 227.328 256.052 226.816C256.479 226.219 256.777 225.664 256.948 225.152C257.033 225.067 257.119 225.323 257.204 225.92C257.289 226.517 257.503 226.475 257.844 225.792C257.929 225.707 257.887 225.579 257.716 225.408C257.631 225.237 257.588 225.067 257.588 224.896C257.588 224.725 257.631 224.64 257.716 224.64C257.887 224.555 257.972 224.469 257.972 224.384C258.057 224.128 257.972 224.043 257.716 224.128C257.545 224.128 257.46 224.085 257.46 224C257.631 223.744 257.801 223.573 257.972 223.488C258.228 223.403 258.399 223.275 258.484 223.104C258.484 222.933 258.399 222.848 258.228 222.848C258.143 222.763 258.143 222.677 258.228 222.592C258.655 221.397 259.124 219.989 259.636 218.368C260.148 216.747 260.532 215.253 260.788 213.888C260.788 213.888 260.703 213.845 260.532 213.76C260.361 213.589 260.276 213.419 260.276 213.248L259.38 212.608C258.356 213.547 257.247 214.357 256.052 215.04C255.967 215.125 255.796 215.168 255.54 215.168C255.199 215.168 254.985 214.997 254.9 214.656C254.815 214.315 254.943 214.016 255.284 213.76C255.711 213.504 256.052 213.333 256.308 213.248C256.564 213.077 256.863 212.821 257.204 212.48C257.375 212.309 257.46 212.139 257.46 211.968C257.545 211.797 257.631 211.627 257.716 211.456L258.228 210.816C258.228 210.389 258.313 210.048 258.484 209.792C258.655 209.621 258.783 209.536 258.868 209.536C258.953 209.536 258.996 209.536 258.996 209.536V209.28C258.996 208.939 259.124 208.725 259.38 208.64C259.721 208.555 259.892 208.427 259.892 208.256C260.063 207.061 261.087 206.165 262.964 205.568C264.841 204.971 266.505 204.672 267.956 204.672C269.407 204.672 270.132 204.885 270.132 205.312C270.132 205.568 269.876 205.867 269.364 206.208C269.108 206.379 268.681 206.763 268.084 207.36C267.487 207.957 266.932 208.683 266.42 209.536L265.524 211.072L264.628 212.224C264.031 213.589 263.177 215.68 262.068 218.496C260.959 221.312 259.807 224.853 258.612 229.12C258.868 228.779 259.465 228.053 260.404 226.944C261.343 225.835 262.452 224.555 263.732 223.104C265.012 221.653 266.249 220.288 267.444 219.008C268.639 217.643 269.62 216.576 270.388 215.808L271.028 215.424C271.199 215.253 271.369 215.04 271.54 214.784C271.796 214.443 272.009 214.187 272.18 214.016C272.265 213.931 272.308 214.101 272.308 214.528C272.393 214.869 272.479 214.997 272.564 214.912C272.905 214.656 273.076 214.272 273.076 213.76C273.161 213.248 273.375 212.907 273.716 212.736C274.655 211.968 275.935 210.901 277.556 209.536C279.263 208.085 281.012 207.232 282.804 206.976C282.975 206.805 283.231 206.763 283.572 206.848C283.999 206.848 284.297 206.805 284.468 206.72C284.639 206.72 284.767 206.677 284.852 206.592C284.937 206.507 285.151 206.464 285.492 206.464C285.663 206.464 286.004 206.592 286.516 206.848C287.113 207.104 287.455 207.445 287.54 207.872C288.052 208.213 288.308 208.725 288.308 209.408C288.308 210.603 287.668 211.499 286.388 212.096C285.961 212.523 285.492 212.949 284.98 213.376C284.468 213.717 283.956 214.101 283.444 214.528C283.273 214.699 283.145 214.784 283.06 214.784C282.463 215.296 281.951 215.851 281.524 216.448C281.097 217.045 280.884 217.813 280.884 218.752C280.884 218.837 280.969 218.965 281.14 219.136C281.311 219.221 281.353 219.307 281.268 219.392C281.524 219.648 281.908 219.819 282.42 219.904C282.932 219.904 283.444 219.904 283.956 219.904C284.809 219.904 286.089 219.563 287.796 218.88H288.052C288.137 218.88 288.18 218.923 288.18 219.008C288.18 219.179 288.009 219.477 287.668 219.904C287.327 220.245 286.943 220.501 286.516 220.672C285.577 221.013 284.596 221.227 283.572 221.312C282.548 221.312 281.823 221.312 281.396 221.312C279.86 221.312 278.879 221.013 278.452 220.416C278.111 219.819 277.769 219.093 277.428 218.24V217.6L278.068 216.96C277.983 216.704 277.855 216.448 277.684 216.192C277.513 215.936 277.428 215.637 277.428 215.296C277.428 214.443 277.769 213.461 278.452 212.352C277.513 212.608 276.319 213.333 274.868 214.528C273.503 215.637 272.095 216.96 270.644 218.496C269.193 219.947 267.871 221.397 266.676 222.848C265.481 224.213 264.543 225.323 263.86 226.176C263.604 226.517 263.305 226.731 262.964 226.816C262.708 226.816 262.495 226.944 262.324 227.2C262.239 227.285 262.324 227.328 262.58 227.328C262.921 227.328 263.049 227.371 262.964 227.456C261.855 229.163 260.66 231.04 259.38 233.088C258.185 235.136 256.991 237.141 255.796 239.104C255.54 239.531 254.943 239.744 254.004 239.744ZM298.279 240.512C298.194 240.512 298.066 240.427 297.895 240.256C297.724 240.171 297.596 240.128 297.511 240.128C297.17 240.213 296.871 240.256 296.615 240.256C296.359 240.256 296.103 240.256 295.847 240.256C295.762 240.256 295.676 240.213 295.591 240.128C295.591 240.043 295.548 240 295.463 240C295.378 240 295.335 240 295.335 240C295.42 240.085 295.42 240.128 295.335 240.128C295.335 240.128 295.25 240.085 295.079 240C294.908 239.915 294.78 239.872 294.695 239.872L294.567 239.744C294.396 239.744 294.268 239.701 294.183 239.616C294.183 239.531 294.14 239.488 294.055 239.488L293.927 239.616L293.799 239.488C293.628 239.403 293.372 239.317 293.031 239.232C292.775 239.061 292.562 238.933 292.391 238.848C292.22 238.848 292.007 238.72 291.751 238.464H291.495C291.324 238.208 291.026 238.037 290.599 237.952C290.599 237.867 290.556 237.781 290.471 237.696H290.343C290.172 237.44 290.044 237.355 289.959 237.44C289.874 237.269 289.746 237.141 289.575 237.056C289.49 236.885 289.362 236.757 289.191 236.672C289.191 236.331 289.106 236.16 288.935 236.16C288.935 235.989 288.764 235.733 288.423 235.392C288.167 235.051 287.996 234.752 287.911 234.496L287.783 234.368C287.442 234.027 287.186 233.472 287.015 232.704C286.93 232.363 286.844 232.235 286.759 232.32C286.759 232.405 286.716 232.192 286.631 231.68C286.631 231.595 286.631 231.467 286.631 231.296C286.716 231.04 286.716 230.869 286.631 230.784C286.631 230.699 286.588 230.656 286.503 230.656C286.503 230.571 286.503 230.485 286.503 230.4C286.418 230.315 286.375 230.272 286.375 230.272C286.46 230.187 286.503 230.144 286.503 230.144C286.503 229.973 286.46 229.888 286.375 229.888C286.375 229.803 286.375 229.717 286.375 229.632V229.376C286.375 228.949 286.46 228.651 286.631 228.48C286.631 228.309 286.674 228.181 286.759 228.096C286.844 228.011 286.887 227.925 286.887 227.84C286.887 227.669 286.972 227.584 287.143 227.584C287.314 227.584 287.399 227.541 287.399 227.456C287.399 227.285 287.442 227.2 287.527 227.2C287.698 227.115 287.826 227.029 287.911 226.944C287.911 226.859 287.954 226.773 288.039 226.688C288.21 226.603 288.295 226.517 288.295 226.432C288.722 226.176 289.191 226.048 289.703 226.048C290.727 226.048 291.239 226.304 291.239 226.816C291.239 226.987 290.983 227.285 290.471 227.712C290.386 227.968 290.343 228.139 290.343 228.224C290.428 228.224 290.386 228.309 290.215 228.48C290.3 228.736 290.343 229.077 290.343 229.504C290.258 229.504 290.215 229.632 290.215 229.888C290.3 230.059 290.343 230.144 290.343 230.144C290.343 230.229 290.386 230.485 290.471 230.912C290.642 231.339 290.77 231.595 290.855 231.68C290.855 231.68 290.94 231.893 291.111 232.32C291.282 232.661 291.367 232.875 291.367 232.96V233.216C291.538 233.472 291.623 233.643 291.623 233.728C291.708 233.728 292.05 233.899 292.647 234.24C292.732 234.325 292.903 234.368 293.159 234.368C293.586 234.624 293.884 234.837 294.055 235.008C294.311 235.179 294.908 235.349 295.847 235.52C296.188 235.605 296.316 235.691 296.231 235.776C296.231 235.776 296.402 235.776 296.743 235.776C296.743 235.776 296.743 235.819 296.743 235.904C296.743 235.904 296.786 235.904 296.871 235.904C297.042 235.819 297.212 235.819 297.383 235.904C297.554 235.904 297.724 235.861 297.895 235.776H298.407C299.004 235.776 299.644 235.691 300.327 235.52L302.247 235.008C302.844 234.923 303.399 234.752 303.911 234.496C304.423 234.24 304.892 233.984 305.319 233.728C305.404 233.728 305.66 233.6 306.087 233.344C306.514 233.003 307.026 232.661 307.623 232.32C307.538 232.064 307.495 231.723 307.495 231.296C307.495 231.04 307.623 230.912 307.879 230.912C308.135 230.827 308.306 230.699 308.391 230.528C308.135 230.357 307.794 230.272 307.367 230.272C307.026 230.272 306.898 230.144 306.983 229.888C306.642 228.011 306.13 226.304 305.447 224.768C304.85 223.232 304.124 221.525 303.271 219.648C303.186 219.392 303.015 218.965 302.759 218.368C302.503 217.771 302.332 217.301 302.247 216.96C302.247 216.875 302.332 216.875 302.503 216.96C302.674 216.96 302.716 216.917 302.631 216.832C302.546 216.405 302.46 215.979 302.375 215.552C302.375 215.125 302.332 214.741 302.247 214.4C302.162 214.229 302.247 214.101 302.503 214.016C302.759 213.931 302.844 213.803 302.759 213.632C302.674 213.461 302.503 213.419 302.247 213.504C301.991 213.589 301.82 213.547 301.735 213.376L301.351 211.84C301.351 211.413 301.266 211.157 301.095 211.072C301.01 210.987 301.095 210.816 301.351 210.56C301.522 210.475 301.607 210.347 301.607 210.176C301.607 209.92 301.65 209.749 301.735 209.664C302.162 209.408 302.332 209.109 302.247 208.768C302.162 208.341 302.247 207.957 302.503 207.616C302.759 207.275 302.972 206.976 303.143 206.72C303.314 206.379 303.57 206.165 303.911 206.08C304.167 205.909 304.252 205.952 304.167 206.208C304.082 206.464 304.082 206.592 304.167 206.592C304.594 206.592 304.764 206.379 304.679 205.952C304.594 205.525 304.722 205.141 305.063 204.8C305.66 204.288 306.556 203.861 307.751 203.52C308.946 203.179 309.842 202.965 310.439 202.88C310.61 202.88 310.738 202.88 310.823 202.88C310.994 202.795 311.122 202.752 311.207 202.752C311.634 202.752 312.06 202.795 312.487 202.88C312.999 202.965 313.468 203.051 313.895 203.136C314.236 203.221 314.748 203.563 315.431 204.16C316.114 204.672 316.626 204.8 316.967 204.544C317.735 203.861 318.546 203.264 319.399 202.752C320.338 202.24 320.935 202.027 321.191 202.112C321.874 202.197 322.471 202.411 322.983 202.752C323.495 203.008 323.666 203.861 323.495 205.312C323.41 205.824 323.196 206.251 322.855 206.592C322.599 206.848 322.343 207.189 322.087 207.616L321.191 208.896C320.85 209.493 320.423 210.091 319.911 210.688C319.484 211.285 319.1 211.669 318.759 211.84C318.418 212.011 318.076 212.309 317.735 212.736C317.479 213.077 317.138 213.419 316.711 213.76C316.284 214.101 315.815 214.357 315.303 214.528C314.876 214.613 314.578 214.699 314.407 214.784C314.151 214.869 313.767 214.912 313.255 214.912C312.828 214.827 312.7 214.656 312.871 214.4C313.042 214.315 313.084 214.229 312.999 214.144C312.914 213.973 312.871 213.845 312.871 213.76C312.871 213.589 312.956 213.461 313.127 213.376C313.383 213.291 313.554 213.163 313.639 212.992C313.724 212.907 313.938 212.608 314.279 212.096C314.706 211.584 314.876 211.285 314.791 211.2C314.791 210.944 314.876 210.731 315.047 210.56C315.047 210.389 315.047 210.261 315.047 210.176C315.047 210.005 315.132 209.877 315.303 209.792C315.644 209.707 315.815 209.579 315.815 209.408V207.872C315.815 207.531 315.772 207.189 315.687 206.848C315.687 206.507 315.602 206.208 315.431 205.952C314.748 205.099 313.639 204.672 312.103 204.672C310.994 204.672 309.927 204.928 308.903 205.44C307.794 205.952 306.855 206.805 306.087 208C305.49 208.853 305.191 209.749 305.191 210.688C305.191 211.371 305.319 212.053 305.575 212.736C305.916 213.419 306.215 214.059 306.471 214.656C306.727 215.253 307.068 215.979 307.495 216.832C308.007 217.685 308.391 218.368 308.647 218.88C309.074 219.563 309.543 220.373 310.055 221.312C310.567 222.165 310.951 222.976 311.207 223.744C311.292 223.829 311.207 223.915 310.951 224C310.78 224 310.738 224.085 310.823 224.256C310.908 224.427 311.036 224.512 311.207 224.512C311.378 224.512 311.506 224.597 311.591 224.768C311.762 225.024 311.762 225.237 311.591 225.408C311.506 225.579 311.506 225.835 311.591 226.176C311.591 226.261 311.676 226.347 311.847 226.432C312.018 226.517 312.103 226.603 312.103 226.688C312.53 227.797 312.743 228.693 312.743 229.376C313.511 228.949 314.364 228.437 315.303 227.84C316.242 227.243 316.754 226.688 316.839 226.176C316.924 226.005 317.052 225.963 317.223 226.048C317.479 226.048 317.607 226.133 317.607 226.304C317.522 226.901 316.796 227.712 315.431 228.736C314.151 229.76 313.17 230.485 312.487 230.912C312.572 230.997 312.53 231.211 312.359 231.552C312.188 231.893 312.146 232.149 312.231 232.32C312.231 232.405 312.188 232.533 312.103 232.704C312.018 232.789 311.932 232.917 311.847 233.088C311.847 233.429 311.762 233.685 311.591 233.856V234.112L311.207 234.368C311.122 234.453 310.994 234.667 310.823 235.008C310.738 235.264 310.61 235.477 310.439 235.648H310.055C309.884 235.819 309.799 236.032 309.799 236.288C309.628 236.544 309.244 236.843 308.647 237.184C308.05 237.44 307.666 237.696 307.495 237.952C307.495 237.952 307.452 237.952 307.367 237.952C307.282 237.952 307.154 238.037 306.983 238.208H306.599C306.514 238.208 306.428 238.293 306.343 238.464C306.258 238.549 306.172 238.635 306.087 238.72C305.831 238.72 305.703 238.805 305.703 238.976C305.362 238.976 305.106 239.019 304.935 239.104L303.655 239.36C303.314 239.701 303.015 239.872 302.759 239.872L302.631 239.744C302.46 239.915 302.332 240 302.247 240H301.735C301.65 240 301.564 240.043 301.479 240.128C301.394 240.213 301.308 240.256 301.223 240.256H300.967C300.882 240.256 300.796 240.256 300.711 240.256C300.711 240.341 300.626 240.384 300.455 240.384C300.199 240.384 299.815 240.384 299.303 240.384C298.876 240.384 298.535 240.427 298.279 240.512ZM296.999 239.36C296.999 239.36 297.084 239.36 297.255 239.36C297.511 239.275 297.682 239.232 297.767 239.232C298.194 239.232 298.578 239.275 298.919 239.36C299.26 239.36 299.602 239.36 299.943 239.36C300.114 239.36 300.199 239.275 300.199 239.104H300.455C300.711 238.848 300.839 238.805 300.839 238.976C300.924 239.147 301.052 239.147 301.223 238.976C301.394 238.976 301.479 238.933 301.479 238.848L301.991 238.592C302.076 238.592 302.119 238.592 302.119 238.592C302.119 238.507 302.162 238.464 302.247 238.464H302.503C302.674 238.464 302.844 238.379 303.015 238.208C303.186 238.037 303.271 237.952 303.271 237.952C303.271 237.952 303.399 237.824 303.655 237.568C303.655 237.568 303.698 237.568 303.783 237.568C303.868 237.483 303.954 237.44 304.039 237.44C304.21 237.269 304.38 237.184 304.551 237.184C304.551 237.099 304.636 237.013 304.807 236.928C304.978 236.757 305.063 236.672 305.063 236.672C305.148 236.587 305.234 236.544 305.319 236.544C305.49 236.459 305.575 236.373 305.575 236.288C305.746 236.288 306.087 235.989 306.599 235.392C307.111 234.795 307.452 234.069 307.623 233.216C307.623 233.045 307.367 233.173 306.855 233.6C306.343 233.941 306.087 234.112 306.087 234.112C305.831 234.197 305.575 234.368 305.319 234.624C305.063 234.795 304.85 234.88 304.679 234.88C304.594 234.88 304.466 234.965 304.295 235.136C304.21 235.221 304.124 235.264 304.039 235.264C303.954 235.264 303.911 235.307 303.911 235.392C303.911 235.392 303.826 235.349 303.655 235.264C303.57 235.435 303.314 235.605 302.887 235.776C302.46 235.947 302.162 236.032 301.991 236.032H301.607L301.479 236.16C301.479 236.16 301.436 236.203 301.351 236.288C301.266 236.288 301.18 236.288 301.095 236.288L300.199 236.416H300.071C299.986 236.416 299.9 236.459 299.815 236.544C299.474 236.544 299.09 236.587 298.663 236.672C298.236 236.757 297.98 236.8 297.895 236.8H297.767C297.767 236.715 297.724 236.672 297.639 236.672V236.8H296.999C296.743 236.8 296.444 236.757 296.103 236.672C295.847 236.501 295.634 236.416 295.463 236.416C295.378 236.416 295.335 236.459 295.335 236.544C295.335 236.544 295.292 236.544 295.207 236.544H294.951C294.866 236.544 294.823 236.501 294.823 236.416H294.183C294.183 236.16 294.098 236.117 293.927 236.288H293.799C293.458 236.288 293.159 236.16 292.903 235.904C292.732 235.648 292.434 235.52 292.007 235.52L291.623 235.136C291.623 235.221 291.58 235.307 291.495 235.392C291.495 235.392 291.495 235.435 291.495 235.52C291.495 235.52 291.538 235.605 291.623 235.776C291.794 235.861 291.879 235.947 291.879 236.032L292.135 236.544L292.647 237.184L292.903 237.44C292.988 237.525 293.031 237.568 293.031 237.568C293.116 237.568 293.202 237.653 293.287 237.824C293.458 237.824 293.543 237.952 293.543 238.208C294.994 238.976 296.146 239.36 296.999 239.36ZM320.738 244.608C320.567 244.096 320.482 243.584 320.482 243.072C320.482 242.816 320.525 242.56 320.61 242.304C320.61 242.133 320.653 241.92 320.738 241.664C320.823 241.408 321.037 240.725 321.378 239.616C321.805 238.507 322.189 237.355 322.53 236.16C322.957 234.965 323.255 234.283 323.426 234.112C323.426 234.112 323.682 233.472 324.194 232.192C324.791 230.827 325.431 229.419 326.114 227.968C326.797 226.432 327.309 225.451 327.65 225.024C328.077 224.085 328.717 222.933 329.57 221.568C330.509 220.117 331.405 218.411 332.258 216.448V215.808C332.258 215.552 332.258 215.339 332.258 215.168C332.343 214.912 332.429 214.656 332.514 214.4C332.855 213.717 333.154 213.248 333.41 212.992C333.751 212.736 334.093 212.267 334.434 211.584C334.434 211.413 334.434 211.243 334.434 211.072C334.519 210.901 334.605 210.731 334.69 210.56C334.519 210.731 334.477 210.603 334.562 210.176C334.391 210.176 334.562 209.749 335.074 208.896C335.415 208.128 335.671 207.701 335.842 207.616H335.97C336.311 207.104 336.61 206.677 336.866 206.336C337.122 205.909 337.207 205.653 337.122 205.568V205.312C337.122 204.715 337.293 204.16 337.634 203.648C338.061 203.136 338.445 202.581 338.786 201.984C339.042 201.643 339.255 201.472 339.426 201.472C339.597 201.472 339.682 201.515 339.682 201.6C339.767 201.6 339.853 201.6 339.938 201.6C340.194 201.6 340.322 201.387 340.322 200.96C340.322 200.789 340.279 200.576 340.194 200.32C340.194 200.064 340.151 199.765 340.066 199.424C340.151 198.997 340.493 198.656 341.09 198.4L341.474 198.272C341.901 196.48 342.413 195.285 343.01 194.688C343.181 194.517 343.351 194.347 343.522 194.176C343.693 194.005 343.863 193.835 344.034 193.664C345.058 192.555 345.826 191.36 346.338 190.08C346.509 189.739 346.722 189.483 346.978 189.312C347.319 189.056 347.618 188.757 347.874 188.416C348.045 188.16 348.087 187.904 348.002 187.648C348.002 187.307 348.045 187.008 348.13 186.752C348.557 186.069 348.855 185.685 349.026 185.6C349.197 185.515 349.367 185.429 349.538 185.344C349.794 185.173 350.221 184.789 350.818 184.192C351.074 183.765 351.33 183.339 351.586 182.912C351.927 182.485 352.269 182.059 352.61 181.632C353.122 181.035 353.677 180.608 354.274 180.352C354.871 180.096 355.469 179.712 356.066 179.2C356.237 179.029 356.322 178.773 356.322 178.432C356.322 178.005 356.407 177.707 356.578 177.536C359.565 175.147 362.765 173.141 366.178 171.52C369.677 169.899 372.365 169.088 374.242 169.088C374.925 169.088 375.565 169.131 376.162 169.216C376.845 169.301 377.485 169.429 378.082 169.6H378.338C378.765 169.6 379.191 169.685 379.618 169.856C380.045 170.027 380.429 170.197 380.77 170.368C381.111 170.368 381.538 170.453 382.05 170.624C382.477 170.795 382.733 171.051 382.818 171.392C382.903 171.733 382.818 171.989 382.562 172.16C382.477 172.245 382.349 172.245 382.178 172.16C382.007 172.075 381.837 172.032 381.666 172.032C381.495 172.032 381.325 171.947 381.154 171.776C380.983 171.605 380.813 171.477 380.642 171.392C380.301 171.392 379.917 171.435 379.49 171.52C379.149 171.605 378.765 171.648 378.338 171.648H377.954C377.357 171.648 376.93 171.563 376.674 171.392C376.503 171.136 376.077 171.093 375.394 171.264C375.309 171.264 375.053 171.307 374.626 171.392C374.199 171.477 373.901 171.52 373.73 171.52C370.658 172.288 367.97 173.568 365.666 175.36C363.362 177.067 361.314 178.987 359.522 181.12C357.815 183.253 356.151 185.301 354.53 187.264C353.762 188.8 352.994 190.037 352.226 190.976C352.141 191.061 352.055 191.019 351.97 190.848C351.885 190.677 351.799 190.677 351.714 190.848C351.458 191.104 351.245 191.531 351.074 192.128C350.989 192.64 350.818 193.067 350.562 193.408C350.477 193.493 350.391 193.451 350.306 193.28C350.221 193.109 350.093 193.109 349.922 193.28C349.837 193.365 349.709 193.707 349.538 194.304C349.453 194.816 349.325 195.157 349.154 195.328C348.13 196.693 347.021 198.016 345.826 199.296C344.631 200.576 343.437 202.069 342.242 203.776C340.535 206.421 338.914 209.024 337.378 211.584C335.842 214.144 334.221 216.96 332.514 220.032C331.917 221.056 331.447 221.995 331.106 222.848C330.85 223.616 330.551 224.341 330.21 225.024C330.039 225.28 329.954 225.621 329.954 226.048C329.954 226.645 330.295 226.944 330.978 226.944C331.49 226.944 332.002 226.816 332.514 226.56L334.306 225.792H334.562C334.818 225.792 334.989 225.92 335.074 226.176C335.245 226.347 335.074 226.603 334.562 226.944C334.221 227.115 334.007 227.328 333.922 227.584C333.837 227.84 333.623 228.181 333.282 228.608C333.111 228.779 332.855 229.077 332.514 229.504C332.258 229.931 332.13 230.187 332.13 230.272C332.045 230.528 331.917 230.613 331.746 230.528C331.661 230.443 331.405 230.571 330.978 230.912C330.893 230.997 330.807 231.168 330.722 231.424C330.722 231.68 330.679 231.893 330.594 232.064C330.509 232.32 330.338 232.533 330.082 232.704C329.911 232.789 329.826 232.875 329.826 232.96C329.741 233.301 329.57 233.515 329.314 233.6C329.143 233.6 328.973 233.685 328.802 233.856C328.717 233.941 328.717 234.069 328.802 234.24C328.887 234.411 328.845 234.581 328.674 234.752L327.394 237.44C327.309 237.611 327.181 237.781 327.01 237.952C326.925 238.123 326.797 238.251 326.626 238.336C326.541 238.336 326.37 238.293 326.114 238.208C325.943 238.123 325.858 238.165 325.858 238.336C325.773 238.421 325.773 238.677 325.858 239.104C326.029 239.445 325.986 239.701 325.73 239.872C325.474 240.043 325.218 240.384 324.962 240.896C324.791 241.493 324.621 241.877 324.45 242.048C324.109 242.389 323.81 242.603 323.554 242.688C323.298 242.859 323.042 243.115 322.786 243.456C322.701 243.541 322.402 243.883 321.89 244.48C321.378 245.163 320.994 245.205 320.738 244.608ZM360.418 240.384C360.162 240.384 359.906 240.384 359.65 240.384C359.394 240.384 359.138 240.341 358.882 240.256C357.346 239.915 356.109 238.933 355.17 237.312C354.317 235.605 353.634 233.643 353.122 231.424C352.695 229.12 352.397 226.859 352.226 224.64C352.141 222.336 352.098 220.459 352.098 219.008C352.013 216.704 351.415 215.552 350.306 215.552C349.794 215.552 349.197 215.765 348.514 216.192C348.429 216.363 348.258 216.491 348.002 216.576C347.831 216.576 347.575 216.661 347.234 216.832L346.85 217.216C346.85 217.301 346.765 217.344 346.594 217.344C346.423 217.259 346.338 217.259 346.338 217.344C346.423 217.941 346.253 218.112 345.826 217.856C345.314 218.197 344.93 218.496 344.674 218.752C344.674 218.837 344.589 218.965 344.418 219.136L344.29 219.264C344.205 219.349 344.119 219.477 344.034 219.648C343.949 219.733 343.778 219.733 343.522 219.648L343.138 220.032C343.138 220.117 343.095 220.245 343.01 220.416C342.925 220.587 342.754 220.629 342.498 220.544L341.858 221.056C341.431 221.739 341.005 222.08 340.578 222.08L339.682 223.232L339.298 223.36C339.298 223.701 338.999 223.957 338.402 224.128C338.317 224.213 338.018 224.427 337.506 224.768C336.994 225.024 336.738 225.152 336.738 225.152C336.567 225.067 336.354 225.024 336.098 225.024C335.927 225.024 336.013 224.768 336.354 224.256C336.439 224.085 336.61 223.957 336.866 223.872C337.122 223.701 337.421 223.445 337.762 223.104C338.018 222.763 338.231 222.421 338.402 222.08C338.658 221.739 338.829 221.568 338.914 221.568L341.09 219.648C341.261 219.989 341.346 219.989 341.346 219.648C341.346 219.307 341.431 219.179 341.602 219.264C341.858 218.923 342.114 218.624 342.37 218.368C342.711 218.112 343.053 217.856 343.394 217.6C343.394 217.515 343.565 217.344 343.906 217.088C344.247 216.917 344.461 216.832 344.546 216.832C344.631 216.832 344.802 216.661 345.058 216.32L345.826 215.808C345.911 215.637 345.997 215.637 346.082 215.808C346.253 215.979 346.381 216.021 346.466 215.936L346.594 215.168C346.679 214.912 346.893 214.699 347.234 214.528C347.661 214.357 348.045 214.144 348.386 213.888C349.239 213.035 349.922 212.608 350.434 212.608C350.519 212.693 350.69 212.693 350.946 212.608C351.629 212.267 352.482 212.096 353.506 212.096C354.786 212.096 355.853 212.565 356.706 213.504C356.962 213.76 357.218 214.144 357.474 214.656C357.474 214.656 357.559 214.912 357.73 215.424L357.986 216.448C358.157 216.875 358.029 217.173 357.602 217.344C358.029 217.685 358.199 217.899 358.114 217.984C358.029 218.069 357.986 218.197 357.986 218.368L358.114 219.904V220.672C358.114 220.928 358.114 221.184 358.114 221.44C358.114 221.611 358.071 221.909 357.986 222.336C358.413 222.763 358.455 223.019 358.114 223.104C358.114 223.104 358.071 223.147 357.986 223.232C357.986 223.232 357.943 223.232 357.858 223.232V223.616L358.242 224L357.986 224.768C358.071 224.683 358.114 224.64 358.114 224.64C358.199 224.64 358.242 224.64 358.242 224.64L357.858 226.944C357.858 227.712 357.943 228.309 358.114 228.736C358.285 229.077 358.199 229.248 357.858 229.248H357.73C357.901 229.589 357.986 229.845 357.986 230.016C357.986 230.357 357.943 230.656 357.858 230.912C357.773 231.083 357.73 231.339 357.73 231.68V231.808C357.901 232.064 358.029 232.491 358.114 233.088C358.285 233.685 358.37 234.24 358.37 234.752C358.37 235.264 358.327 235.605 358.242 235.776L358.37 235.904C358.541 236.075 358.711 236.245 358.882 236.416C359.138 236.501 359.181 236.629 359.01 236.8C358.839 236.971 358.839 237.056 359.01 237.056C359.181 237.227 359.309 237.312 359.394 237.312C359.735 237.483 359.991 237.568 360.162 237.568L360.418 237.696C360.503 237.781 360.589 237.824 360.674 237.824C362.381 238.08 364.045 237.227 365.666 235.264C365.837 235.008 366.05 234.88 366.306 234.88C366.477 234.88 366.605 235.008 366.69 235.264C366.861 235.52 366.818 235.819 366.562 236.16C365.453 237.781 364.386 238.891 363.362 239.488C362.338 240.085 361.357 240.384 360.418 240.384ZM388.105 200.064C387.849 200.064 387.593 199.979 387.337 199.808C387.166 199.637 386.91 199.424 386.569 199.168C386.398 199.083 386.185 198.997 385.929 198.912C385.758 198.741 385.673 198.485 385.673 198.144C385.588 198.059 385.417 198.016 385.161 198.016C384.734 198.016 384.521 197.717 384.521 197.12C384.521 196.437 384.862 195.968 385.545 195.712L386.185 195.2V195.328L386.697 194.688H386.953C387.465 194.688 387.806 194.432 387.977 193.92C388.233 193.408 388.745 193.067 389.513 192.896C390.025 192.725 390.452 192.768 390.793 193.024C391.134 193.28 391.561 193.408 392.073 193.408C392.585 193.408 393.14 193.237 393.737 192.896L395.657 192.512C395.913 192.512 396.041 192.597 396.041 192.768C396.041 192.939 395.785 193.152 395.273 193.408C394.846 193.664 394.548 193.877 394.377 194.048L394.249 194.176L394.121 194.432L393.609 195.072C393.097 195.669 392.5 196.395 391.817 197.248C391.22 198.016 390.58 198.656 389.897 199.168C389.129 199.765 388.532 200.064 388.105 200.064ZM368.649 240.384C368.137 240.384 367.881 240.085 367.881 239.488C367.881 239.061 368.009 238.549 368.265 237.952C368.948 236.501 369.716 234.453 370.569 231.808C371.508 229.163 372.66 226.901 374.025 225.024C374.964 223.147 375.817 221.312 376.585 219.52C377.438 217.643 378.249 215.765 379.017 213.888C379.017 213.888 378.932 213.845 378.761 213.76C378.676 213.589 378.633 213.419 378.633 213.248C378.121 212.907 377.566 212.437 376.969 211.84C376.457 211.157 376.414 210.475 376.841 209.792C377.012 209.621 377.14 209.536 377.225 209.536C377.31 209.536 377.353 209.536 377.353 209.536C377.353 209.451 377.31 209.408 377.225 209.408C377.225 209.323 377.225 209.28 377.225 209.28C377.225 208.939 377.396 208.725 377.737 208.64C378.078 208.555 378.249 208.427 378.249 208.256C378.42 207.061 379.444 206.165 381.321 205.568C383.198 204.971 384.862 204.672 386.313 204.672C387.764 204.672 388.489 204.885 388.489 205.312C388.489 205.483 388.233 205.781 387.721 206.208C387.465 206.379 387.038 206.763 386.441 207.36C385.844 207.957 385.289 208.683 384.777 209.536L383.753 211.072C383.668 211.243 383.54 211.456 383.369 211.712C383.284 211.883 383.156 212.053 382.985 212.224C381.62 214.699 380.51 216.789 379.657 218.496C378.804 220.203 377.78 222.379 376.585 225.024C376.414 225.536 376.329 225.877 376.329 226.048C376.329 226.645 376.67 226.944 377.353 226.944C377.865 226.944 378.377 226.816 378.889 226.56L380.169 226.048C382.217 224.171 384.35 222.592 386.569 221.312C386.654 221.312 386.697 221.312 386.697 221.312C386.782 221.227 386.868 221.184 386.953 221.184C387.209 221.184 387.38 221.355 387.465 221.696C387.55 221.952 387.465 222.165 387.209 222.336C384.734 223.701 382.43 225.451 380.297 227.584C380.212 227.755 380.126 227.925 380.041 228.096C379.956 228.267 379.828 228.437 379.657 228.608C379.486 228.779 379.23 229.077 378.889 229.504C378.633 229.931 378.505 230.187 378.505 230.272C378.42 230.528 378.292 230.613 378.121 230.528C378.036 230.443 377.78 230.571 377.353 230.912C377.268 230.997 377.182 231.168 377.097 231.424C377.097 231.68 377.054 231.893 376.969 232.064C376.884 232.32 376.713 232.533 376.457 232.704C376.286 232.789 376.201 232.875 376.201 232.96C376.116 233.301 375.945 233.515 375.689 233.6C375.518 233.6 375.348 233.685 375.177 233.856C375.092 233.941 375.092 234.069 375.177 234.24C375.262 234.411 375.22 234.581 375.049 234.752C374.964 235.008 374.878 235.136 374.793 235.136C374.708 235.051 374.58 235.093 374.409 235.264C374.068 235.605 373.812 235.776 373.641 235.776C373.129 235.947 372.916 236.075 373.001 236.16C373.172 236.245 373.3 236.331 373.385 236.416C373.556 236.416 373.428 236.544 373.001 236.8C372.83 236.885 372.66 237.141 372.489 237.568C372.318 237.909 372.148 238.165 371.977 238.336C371.721 238.507 371.465 238.635 371.209 238.72C371.038 238.805 370.825 238.976 370.569 239.232C369.801 240 369.161 240.384 368.649 240.384ZM357 276.352C355.72 276.352 354.611 276.224 353.672 275.968C353.075 275.797 352.477 275.584 351.88 275.328C351.283 275.072 350.643 274.773 349.96 274.432L349.704 274.304C349.363 274.133 348.979 273.877 348.552 273.536C348.125 273.28 347.699 273.067 347.272 272.896C346.931 272.811 346.461 272.555 345.864 272.128C345.437 271.787 345.181 271.445 345.096 271.104C344.925 270.763 344.968 270.549 345.224 270.464C345.309 270.464 345.437 270.507 345.608 270.592C345.779 270.763 345.949 270.891 346.12 270.976C346.291 271.061 346.504 271.189 346.76 271.36C346.931 271.531 347.101 271.659 347.272 271.744C347.699 271.915 348.083 272.043 348.424 272.128C348.68 272.299 348.979 272.469 349.32 272.64C350.088 272.981 350.643 273.195 350.984 273.28C351.325 273.365 351.837 273.451 352.52 273.536L354.184 273.664C357.171 273.835 359.731 273.451 361.864 272.512C363.997 271.573 365.917 270.336 367.624 268.8C369.245 267.349 370.739 265.856 372.104 264.32C372.36 263.637 372.659 262.997 373 262.4C373.256 261.803 373.555 261.376 373.896 261.12C373.981 261.035 374.067 261.077 374.152 261.248C374.237 261.504 374.323 261.589 374.408 261.504C374.579 261.248 374.707 260.821 374.792 260.224C374.877 259.712 375.005 259.328 375.176 259.072C375.347 258.901 375.517 258.944 375.688 259.2C375.773 259.456 375.859 259.541 375.944 259.456C376.115 259.285 376.2 258.944 376.2 258.432C376.2 258.005 376.243 257.707 376.328 257.536C377.267 256.341 378.077 255.232 378.76 254.208C379.443 253.184 380.211 251.989 381.064 250.624C381.491 249.941 382.045 249.173 382.728 248.32C383.325 247.467 383.923 246.613 384.52 245.76C385.203 244.309 385.971 243.115 386.824 242.176V241.92C386.824 241.579 386.909 241.237 387.08 240.896C387.251 240.555 387.379 240.256 387.464 240C387.635 239.317 387.805 238.891 387.976 238.72C388.147 238.549 388.275 238.08 388.36 237.312H388.488C388.061 236.288 387.976 235.392 388.232 234.624C388.403 234.283 388.701 233.899 389.128 233.472C389.64 232.96 390.024 232.533 390.28 232.192C390.451 231.765 390.493 231.509 390.408 231.424V231.04C390.408 230.443 390.536 229.931 390.792 229.504C391.133 229.077 391.432 228.565 391.688 227.968C391.773 227.627 391.944 227.456 392.2 227.456H392.584C392.755 227.456 392.84 227.328 392.84 227.072C392.84 226.901 392.797 226.688 392.712 226.432C392.712 226.091 392.669 225.749 392.584 225.408C392.669 224.811 392.925 224.427 393.352 224.256H393.608C393.779 223.147 393.949 222.379 394.12 221.952C394.291 221.44 394.504 221.013 394.76 220.672L395.912 219.136L396.296 217.728C396.467 217.387 396.637 217.131 396.808 216.96C396.979 216.704 397.149 216.491 397.32 216.32V216.192C397.405 215.936 397.533 215.723 397.704 215.552C397.875 215.296 398.003 215.083 398.088 214.912L398.6 213.888C398.6 213.717 398.771 213.333 399.112 212.736C399.453 212.139 399.667 211.797 399.752 211.712C400.264 210.773 400.648 210.133 400.904 209.792C401.245 209.451 401.757 208.853 402.44 208C402.611 207.659 402.867 207.232 403.208 206.72C403.635 206.123 404.019 205.568 404.36 205.056L402.312 205.44C402.141 205.525 402.056 205.611 402.056 205.696C402.056 205.696 401.971 205.696 401.8 205.696C401.629 205.781 401.373 205.867 401.032 205.952C400.691 206.037 400.435 206.08 400.264 206.08C400.008 206.08 399.667 206.08 399.24 206.08C398.813 205.995 398.387 205.952 397.96 205.952C397.875 205.952 397.789 205.867 397.704 205.696C397.619 205.525 397.491 205.483 397.32 205.568C397.235 205.568 397.064 205.653 396.808 205.824C396.552 205.995 396.339 206.123 396.168 206.208C396.083 206.208 395.997 206.208 395.912 206.208C395.827 206.123 395.741 206.123 395.656 206.208C395.571 206.208 395.443 206.251 395.272 206.336C395.187 206.421 395.059 206.507 394.888 206.592C394.461 206.677 393.992 206.805 393.48 206.976C392.968 207.061 392.413 207.232 391.816 207.488H391.56C391.304 207.488 391.176 207.36 391.176 207.104C391.176 206.592 391.432 206.293 391.944 206.208C392.541 206.037 393.267 205.781 394.12 205.44C394.973 205.099 395.827 204.843 396.68 204.672C396.936 204.672 397.149 204.629 397.32 204.544C397.576 204.459 397.789 204.416 397.96 204.416C398.216 204.416 398.429 204.373 398.6 204.288C398.856 204.203 399.112 204.16 399.368 204.16C399.539 203.989 399.667 203.904 399.752 203.904C400.435 203.904 401.117 203.733 401.8 203.392C402.483 202.965 403.251 202.539 404.104 202.112C404.616 201.941 405.085 201.6 405.512 201.088C406.024 200.576 406.365 200.277 406.536 200.192C406.707 200.021 406.835 199.851 406.92 199.68C407.091 199.509 407.347 199.339 407.688 199.168C408.029 198.656 408.456 198.101 408.968 197.504C409.565 196.907 410.333 196.565 411.272 196.48C411.613 196.48 412.211 196.565 413.064 196.736C414.003 196.821 414.515 196.864 414.6 196.864C414.941 196.949 415.112 197.248 415.112 197.76C415.112 198.613 414.813 199.211 414.216 199.552C414.045 199.637 413.96 199.893 413.96 200.32C414.045 200.661 414.003 200.917 413.832 201.088L411.912 202.112C411.4 202.368 411.016 202.624 410.76 202.88C410.589 203.051 410.205 203.221 409.608 203.392C409.437 203.392 409.181 203.435 408.84 203.52C408.584 203.605 408.328 203.691 408.072 203.776C407.816 204.288 407.517 204.715 407.176 205.056C406.92 205.312 406.579 205.824 406.152 206.592C405.299 207.957 404.872 208.768 404.872 209.024C404.872 209.195 404.744 209.493 404.488 209.92C404.403 210.005 404.317 210.219 404.232 210.56C404.147 210.816 404.061 211.029 403.976 211.2L402.184 213.888C402.184 213.973 402.013 214.187 401.672 214.528C401.331 214.784 401.117 214.997 401.032 215.168C400.947 215.339 400.904 215.467 400.904 215.552C400.989 215.637 401.032 215.723 401.032 215.808C401.032 216.064 400.904 216.235 400.648 216.32C400.477 216.405 400.392 216.491 400.392 216.576C400.307 216.661 400.221 216.704 400.136 216.704C400.136 216.619 400.051 216.661 399.88 216.832C399.795 216.917 399.709 217.173 399.624 217.6C399.624 217.941 399.581 218.155 399.496 218.24C398.984 219.093 398.685 219.947 398.6 220.8C398.515 221.568 398.173 222.421 397.576 223.36C397.064 224.469 396.936 225.024 397.192 225.024C397.448 225.024 397.576 225.024 397.576 225.024C398.771 223.829 400.477 222.08 402.696 219.776C405 217.387 407.347 215.125 409.736 212.992C409.992 212.736 410.248 212.395 410.504 211.968C410.76 211.541 411.016 211.243 411.272 211.072C411.869 210.475 412.509 210.005 413.192 209.664C413.875 209.237 414.515 208.768 415.112 208.256C415.539 207.915 415.923 207.701 416.264 207.616C416.691 207.531 417.075 207.36 417.416 207.104C417.587 207.019 417.629 206.933 417.544 206.848C417.459 206.677 417.501 206.549 417.672 206.464C418.611 205.952 419.123 205.653 419.208 205.568C419.293 205.483 419.635 205.355 420.232 205.184C421.171 204.843 422.237 204.672 423.432 204.672C424.2 204.672 424.669 204.715 424.84 204.8C425.267 205.056 425.736 205.269 426.248 205.44C426.76 205.611 427.016 206.123 427.016 206.976C427.016 207.403 427.059 207.659 427.144 207.744C427.229 207.744 427.272 208.043 427.272 208.64C427.272 209.067 427.187 209.749 427.016 210.688C426.931 211.627 426.845 212.352 426.76 212.864L426.248 216.064C426.163 216.32 426.163 216.576 426.248 216.832C426.333 217.088 426.333 217.344 426.248 217.6C426.163 217.685 426.035 217.813 425.864 217.984C425.693 218.155 425.565 218.325 425.48 218.496C424.883 218.581 424.456 218.88 424.2 219.392C424.029 219.819 424.243 219.989 424.84 219.904C424.755 219.989 424.584 220.117 424.328 220.288C424.157 220.459 424.029 220.629 423.944 220.8C423.859 220.885 423.901 220.971 424.072 221.056C424.243 221.056 424.157 221.355 423.816 221.952C423.56 222.379 423.304 222.933 423.048 223.616C422.792 224.299 422.536 224.853 422.28 225.28C422.024 225.621 421.768 225.835 421.512 225.92C421.341 226.005 421.128 226.219 420.872 226.56C420.787 226.731 420.744 226.901 420.744 227.072C420.744 227.243 420.659 227.413 420.488 227.584C420.403 227.755 420.232 227.883 419.976 227.968C419.805 228.053 419.635 228.181 419.464 228.352C416.733 231.595 413.405 234.539 409.48 237.184C405.64 239.829 401.544 241.493 397.192 242.176C396.936 242.176 396.68 242.176 396.424 242.176C396.253 242.261 396.083 242.304 395.912 242.304C394.547 242.304 393.48 241.963 392.712 241.28C392.029 240.597 391.389 239.872 390.792 239.104C390.621 239.701 390.451 240.256 390.28 240.768C390.109 241.365 389.939 241.963 389.768 242.56C389.597 243.157 389.469 243.84 389.384 244.608C389.384 245.376 389.171 245.845 388.744 246.016C388.488 246.101 388.275 245.973 388.104 245.632C387.933 245.291 387.848 245.589 387.848 246.528C388.019 246.613 388.061 246.784 387.976 247.04C387.805 247.296 387.72 247.509 387.72 247.68C387.805 247.851 387.848 248.107 387.848 248.448C387.848 248.875 387.72 249.259 387.464 249.6C387.123 249.941 386.867 250.325 386.696 250.752C386.611 251.008 386.44 251.136 386.184 251.136C386.099 251.136 385.971 251.093 385.8 251.008C385.629 250.923 385.501 250.88 385.416 250.88C385.331 250.88 385.288 250.965 385.288 251.136C385.288 251.307 385.416 251.904 385.672 252.928C385.672 253.44 385.416 253.696 384.904 253.696H384.52C384.435 254.635 384.307 255.317 384.136 255.744C383.965 256.256 383.752 256.64 383.496 256.896L382.6 257.536C381.747 258.219 381.149 259.2 380.808 260.48C380.723 260.736 380.552 260.949 380.296 261.12C379.955 261.291 379.699 261.504 379.528 261.76C379.528 261.845 379.528 261.888 379.528 261.888C379.443 261.888 379.4 261.931 379.4 262.016C379.4 263.04 378.973 264.064 378.12 265.088C377.181 266.112 376.243 267.008 375.304 267.776C375.133 268.117 374.92 268.459 374.664 268.8C374.408 269.141 374.109 269.44 373.768 269.696C373.341 270.123 372.872 270.379 372.36 270.464C371.763 270.549 371.208 270.805 370.696 271.232C370.525 271.317 370.483 271.531 370.568 271.872C370.653 272.299 370.611 272.555 370.44 272.64C368.477 273.835 366.259 274.731 363.784 275.328C361.309 276.011 359.048 276.352 357 276.352ZM397.576 239.744C398.344 239.744 399.453 239.573 400.904 239.232C402.355 238.805 403.677 238.251 404.872 237.568C405.299 237.397 405.683 237.184 406.024 236.928C406.451 236.587 406.835 236.245 407.176 235.904C407.517 235.563 407.731 235.221 407.816 234.88C408.157 234.368 408.669 233.813 409.352 233.216L409.992 232.832C410.333 232.491 410.675 231.893 411.016 231.04H411.272C411.613 230.955 411.827 230.784 411.912 230.528L412.552 230.272C412.552 230.016 412.637 229.803 412.808 229.632C412.979 229.291 413.277 228.907 413.704 228.48C414.131 227.968 414.344 227.541 414.344 227.2C414.344 227.115 414.259 226.987 414.088 226.816C414.173 226.645 414.344 226.347 414.6 225.92C414.941 225.408 415.155 225.067 415.24 224.896L416.008 224.768L416.392 224V223.744C417.501 223.744 417.971 223.317 417.8 222.464L418.696 220.032C418.867 219.349 419.123 218.88 419.464 218.624C419.464 218.283 419.507 218.069 419.592 217.984C419.677 217.899 419.763 217.728 419.848 217.472C420.104 216.789 420.36 215.893 420.616 214.784C420.957 213.675 421.128 213.12 421.128 213.12L420.744 212.352C420.744 212.181 420.616 211.925 420.36 211.584C420.189 211.243 420.147 210.944 420.232 210.688C420.403 210.091 420.701 209.707 421.128 209.536C421.64 209.365 421.725 209.237 421.384 209.152H421.256C421 209.152 420.701 209.195 420.36 209.28C420.104 209.365 419.763 209.493 419.336 209.664C418.824 209.835 418.355 209.877 417.928 209.792C417.501 209.707 417.16 209.749 416.904 209.92C416.051 210.176 415.155 210.603 414.216 211.2C413.277 211.712 412.253 212.437 411.144 213.376C411.059 213.461 410.931 213.632 410.76 213.888C410.589 214.144 410.419 214.357 410.248 214.528C410.163 214.613 409.992 214.656 409.736 214.656C409.565 214.656 409.395 214.741 409.224 214.912C409.139 214.997 409.139 215.125 409.224 215.296C409.309 215.467 409.309 215.637 409.224 215.808C409.053 215.893 408.883 215.979 408.712 216.064C408.541 216.149 408.371 216.277 408.2 216.448L407.816 217.088C406.365 218.709 404.573 220.501 402.44 222.464C400.392 224.427 398.643 226.347 397.192 228.224L415.624 221.184C416.136 220.928 416.605 220.8 417.032 220.8C417.203 220.715 417.416 220.8 417.672 221.056C417.757 221.227 417.672 221.397 417.416 221.568C417.245 221.739 417.117 221.781 417.032 221.696L416.392 221.568C416.307 221.653 416.136 221.781 415.88 221.952C415.709 222.123 415.539 222.208 415.368 222.208L414.728 222.464C414.643 222.549 414.472 222.592 414.216 222.592C413.96 222.592 413.789 222.635 413.704 222.72C413.533 222.805 413.405 222.891 413.32 222.976C413.235 222.976 413.107 223.061 412.936 223.232C410.973 224.085 408.84 225.067 406.536 226.176C404.232 227.2 402.099 228.224 400.136 229.248C397.661 230.613 395.955 231.936 395.016 233.216C394.077 234.411 393.608 235.477 393.608 236.416C393.608 237.184 393.821 237.867 394.248 238.464C394.675 238.976 395.187 239.317 395.784 239.488C396.381 239.659 396.979 239.744 397.576 239.744Z" fill="black"/>
<path d="M166.33 275.739H157.807C157.693 274.864 157.46 274.074 157.108 273.369C156.756 272.665 156.29 272.062 155.71 271.562C155.131 271.062 154.443 270.682 153.648 270.42C152.864 270.148 151.994 270.011 151.04 270.011C149.347 270.011 147.886 270.426 146.659 271.256C145.443 272.085 144.506 273.284 143.847 274.852C143.199 276.42 142.875 278.318 142.875 280.545C142.875 282.864 143.205 284.807 143.864 286.375C144.534 287.932 145.472 289.108 146.676 289.903C147.892 290.687 149.33 291.08 150.989 291.08C151.92 291.08 152.767 290.96 153.528 290.722C154.301 290.483 154.977 290.136 155.557 289.682C156.148 289.216 156.631 288.653 157.006 287.994C157.392 287.324 157.659 286.568 157.807 285.727L166.33 285.778C166.182 287.324 165.733 288.847 164.983 290.347C164.244 291.847 163.227 293.216 161.932 294.455C160.636 295.682 159.057 296.659 157.193 297.386C155.341 298.114 153.216 298.477 150.818 298.477C147.659 298.477 144.83 297.784 142.33 296.398C139.841 295 137.875 292.966 136.432 290.295C134.989 287.625 134.267 284.375 134.267 280.545C134.267 276.705 135 273.449 136.466 270.778C137.932 268.108 139.915 266.08 142.415 264.693C144.915 263.307 147.716 262.614 150.818 262.614C152.932 262.614 154.886 262.909 156.682 263.5C158.477 264.08 160.057 264.932 161.42 266.057C162.784 267.17 163.892 268.54 164.744 270.165C165.597 271.79 166.125 273.648 166.33 275.739ZM179.493 283.068V298H171.158V263.091H179.22V276.625H179.51C180.101 275.011 181.067 273.75 182.408 272.841C183.76 271.932 185.413 271.477 187.368 271.477C189.209 271.477 190.811 271.886 192.175 272.705C193.538 273.511 194.595 274.653 195.345 276.131C196.107 277.608 196.482 279.335 196.47 281.312V298H188.135V282.949C188.146 281.494 187.783 280.358 187.044 279.54C186.305 278.722 185.266 278.312 183.925 278.312C183.05 278.312 182.277 278.506 181.607 278.892C180.947 279.267 180.43 279.807 180.055 280.511C179.692 281.216 179.504 282.068 179.493 283.068ZM213.895 298.494C211.145 298.494 208.781 297.932 206.804 296.807C204.838 295.67 203.321 294.091 202.253 292.068C201.196 290.034 200.668 287.676 200.668 284.994C200.668 282.301 201.196 279.943 202.253 277.92C203.321 275.886 204.838 274.307 206.804 273.182C208.781 272.045 211.145 271.477 213.895 271.477C216.645 271.477 219.003 272.045 220.969 273.182C222.946 274.307 224.463 275.886 225.52 277.92C226.588 279.943 227.122 282.301 227.122 284.994C227.122 287.676 226.588 290.034 225.52 292.068C224.463 294.091 222.946 295.67 220.969 296.807C219.003 297.932 216.645 298.494 213.895 298.494ZM213.946 292.205C214.946 292.205 215.793 291.898 216.486 291.284C217.179 290.67 217.707 289.818 218.071 288.727C218.446 287.636 218.634 286.375 218.634 284.943C218.634 283.489 218.446 282.216 218.071 281.125C217.707 280.034 217.179 279.182 216.486 278.568C215.793 277.955 214.946 277.648 213.946 277.648C212.912 277.648 212.037 277.955 211.321 278.568C210.616 279.182 210.077 280.034 209.702 281.125C209.338 282.216 209.156 283.489 209.156 284.943C209.156 286.375 209.338 287.636 209.702 288.727C210.077 289.818 210.616 290.67 211.321 291.284C212.037 291.898 212.912 292.205 213.946 292.205ZM231.392 298V271.818H239.489V276.591H239.761C240.239 274.864 241.017 273.58 242.097 272.739C243.176 271.886 244.432 271.46 245.864 271.46C246.25 271.46 246.648 271.489 247.057 271.545C247.466 271.591 247.847 271.665 248.199 271.767V279.011C247.801 278.875 247.278 278.767 246.631 278.688C245.994 278.608 245.426 278.568 244.926 278.568C243.938 278.568 243.045 278.79 242.25 279.233C241.466 279.665 240.847 280.273 240.392 281.057C239.949 281.83 239.727 282.739 239.727 283.784V298H231.392ZM259.798 298.375C257.866 298.375 256.111 297.875 254.531 296.875C252.952 295.875 251.69 294.375 250.747 292.375C249.804 290.375 249.332 287.892 249.332 284.926C249.332 281.847 249.821 279.312 250.798 277.324C251.776 275.335 253.054 273.864 254.634 272.909C256.224 271.955 257.935 271.477 259.764 271.477C261.139 271.477 262.315 271.716 263.293 272.193C264.27 272.659 265.077 273.261 265.713 274C266.349 274.739 266.832 275.506 267.162 276.301H267.332V263.091H275.668V298H267.418V293.756H267.162C266.81 294.562 266.31 295.318 265.662 296.023C265.014 296.727 264.202 297.295 263.224 297.727C262.259 298.159 261.116 298.375 259.798 298.375ZM262.696 291.881C263.707 291.881 264.571 291.597 265.287 291.028C266.003 290.449 266.554 289.636 266.94 288.591C267.327 287.545 267.52 286.318 267.52 284.909C267.52 283.477 267.327 282.244 266.94 281.21C266.565 280.176 266.014 279.381 265.287 278.824C264.571 278.267 263.707 277.989 262.696 277.989C261.662 277.989 260.787 278.273 260.071 278.841C259.355 279.409 258.81 280.21 258.435 281.244C258.071 282.278 257.889 283.5 257.889 284.909C257.889 286.318 258.077 287.545 258.452 288.591C258.827 289.636 259.366 290.449 260.071 291.028C260.787 291.597 261.662 291.881 262.696 291.881ZM303.797 279.812L296.143 280.017C296.064 279.472 295.848 278.989 295.496 278.568C295.143 278.136 294.683 277.801 294.115 277.562C293.558 277.312 292.911 277.188 292.172 277.188C291.206 277.188 290.382 277.381 289.7 277.767C289.03 278.153 288.7 278.676 288.712 279.335C288.7 279.847 288.905 280.29 289.325 280.665C289.757 281.04 290.524 281.341 291.626 281.568L296.672 282.523C299.286 283.023 301.229 283.852 302.501 285.011C303.786 286.17 304.433 287.705 304.445 289.614C304.433 291.409 303.899 292.972 302.842 294.301C301.797 295.631 300.365 296.665 298.547 297.403C296.729 298.131 294.649 298.494 292.308 298.494C288.57 298.494 285.621 297.727 283.462 296.193C281.314 294.648 280.087 292.58 279.78 289.989L288.013 289.784C288.195 290.739 288.666 291.466 289.428 291.966C290.189 292.466 291.161 292.716 292.342 292.716C293.411 292.716 294.28 292.517 294.95 292.119C295.621 291.722 295.962 291.193 295.973 290.534C295.962 289.943 295.7 289.472 295.189 289.119C294.678 288.756 293.876 288.472 292.786 288.267L288.217 287.398C285.592 286.92 283.638 286.04 282.354 284.756C281.07 283.46 280.433 281.812 280.445 279.812C280.433 278.062 280.899 276.568 281.842 275.33C282.786 274.08 284.126 273.125 285.865 272.466C287.604 271.807 289.655 271.477 292.018 271.477C295.564 271.477 298.359 272.222 300.405 273.71C302.45 275.187 303.581 277.222 303.797 279.812Z" fill="black"/>
<rect x="124.5" y="76.5" width="25" height="89" fill="white" stroke="#767676"/>
<rect x="150.5" y="76.5" width="25" height="89" fill="white" stroke="#767676"/>
<rect x="176.5" y="76.5" width="25" height="89" fill="white" stroke="#767676"/>
<rect x="202.5" y="76.5" width="25" height="89" fill="white" stroke="#767676"/>
<rect x="228.5" y="76.5" width="25" height="89" fill="white" stroke="#767676"/>
<rect x="254.5" y="76.5" width="25" height="89" fill="white" stroke="#767676"/>
<rect x="280.5" y="76.5" width="25" height="89" fill="white" stroke="#767676"/>
<path d="M158.5 76.5V123C158.5 125.485 156.485 127.5 154 127.5H145C142.515 127.5 140.5 125.485 140.5 123V76.5H158.5Z" fill="black" stroke="black"/>
<path d="M184.5 76.5V123C184.5 125.485 182.485 127.5 180 127.5H171C168.515 127.5 166.5 125.485 166.5 123V76.5H184.5Z" fill="black" stroke="black"/>
<path d="M288.5 76.5V123C288.5 125.485 286.485 127.5 284 127.5H275C272.515 127.5 270.5 125.485 270.5 123V76.5H288.5Z" fill="black" stroke="black"/>
<path d="M236.5 76.5V123C236.5 125.485 234.485 127.5 232 127.5H223C220.515 127.5 218.5 125.485 218.5 123V76.5H236.5Z" fill="black" stroke="black"/>
<path d="M262.5 76.5V123C262.5 125.485 260.485 127.5 258 127.5H249C246.515 127.5 244.5 125.485 244.5 123V76.5H262.5Z" fill="black" stroke="black"/>
</svg>
